<?xml version="1.0" standalone="no"?>
<!DOCTYPE svg PUBLIC "-//W3C//DTD SVG 20010904//EN"
 "http://www.w3.org/TR/2001/REC-SVG-20010904/DTD/svg10.dtd">
<svg version="1.0" xmlns="http://www.w3.org/2000/svg"
 width="614.000000pt" height="614.000000pt" viewBox="0 0 614.000000 614.000000"
 preserveAspectRatio="xMidYMid meet">
<metadata>
Created by potrace 1.11, written by Peter Selinger 2001-2013
</metadata>
<g transform="translate(0.000000,614.000000) scale(0.100000,-0.100000)"
fill="#000000" stroke="none">
<path d="M543 5809 c-15 -5 -17 -34 -16 -289 l1 -284 24 -19 c12 -10 34 -28
48 -40 14 -12 66 -56 115 -97 50 -41 95 -79 101 -85 6 -5 35 -30 64 -55 29
-25 58 -50 64 -55 6 -6 45 -38 86 -72 41 -33 84 -69 95 -79 11 -11 40 -36 65
-56 25 -20 57 -47 71 -60 15 -13 46 -39 70 -60 24 -20 54 -44 65 -55 12 -10
41 -34 65 -53 23 -19 59 -49 78 -66 20 -17 49 -42 65 -55 16 -13 34 -29 40
-34 6 -6 38 -33 71 -60 33 -28 65 -54 71 -60 6 -5 32 -28 59 -50 26 -22 53
-45 59 -50 6 -6 67 -57 136 -115 160 -134 152 -127 240 -202 41 -35 88 -74
104 -88 17 -14 48 -41 70 -60 36 -31 109 -92 185 -155 13 -11 32 -27 41 -35 8
-8 70 -60 135 -114 66 -54 125 -104 130 -110 6 -6 31 -28 57 -49 26 -21 53
-43 60 -50 7 -7 40 -34 73 -62 33 -27 62 -52 65 -55 3 -3 32 -27 65 -55 33
-27 65 -54 71 -60 6 -5 33 -28 59 -50 26 -22 56 -47 65 -55 10 -8 34 -28 55
-45 20 -16 46 -39 59 -50 12 -11 46 -40 76 -65 29 -25 58 -49 64 -55 6 -5 33
-28 60 -50 27 -21 60 -49 73 -61 13 -12 43 -37 66 -56 22 -18 48 -40 57 -48 9
-8 38 -33 65 -55 27 -21 59 -48 71 -60 30 -28 64 -56 97 -82 l28 -21 -23 -17
c-38 -26 -91 -61 -334 -215 -128 -81 -266 -169 -308 -196 -43 -27 -112 -71
-154 -98 -42 -27 -121 -78 -175 -112 -53 -35 -99 -64 -102 -64 -8 0 -100 -64
-107 -74 -4 -6 -8 -8 -8 -4 0 5 -25 -10 -57 -31 l-56 -40 -56 36 c-31 20 -85
54 -121 76 -36 22 -67 43 -70 47 -3 4 -27 19 -53 34 -26 14 -60 35 -75 45 -25
17 -88 58 -284 182 -266 168 -934 593 -936 595 -2 1 -4 402 -4 889 l0 887 -21
18 c-12 10 -33 28 -47 40 -14 12 -45 38 -69 58 -24 21 -49 42 -55 47 -6 6 -36
30 -66 55 -30 25 -59 50 -65 56 -5 6 -37 33 -70 60 -33 27 -65 54 -71 59 -6 6
-33 28 -60 50 -27 22 -80 67 -119 100 -38 33 -76 64 -83 70 -7 5 -22 19 -32
29 -11 11 -20 18 -21 15 -1 -5 -1 -2841 0 -2856 1 -7 12 -18 26 -25 23 -12
186 -115 382 -240 45 -29 129 -82 185 -118 57 -35 105 -67 108 -70 3 -4 12
-10 20 -13 8 -4 42 -25 75 -47 33 -21 88 -56 123 -77 34 -20 62 -41 62 -45 0
-4 5 -8 10 -8 6 0 47 -24 93 -53 45 -29 107 -68 137 -87 30 -19 57 -38 58 -42
2 -5 8 -8 14 -8 6 0 26 -11 44 -25 18 -14 35 -25 38 -25 6 0 242 -152 298
-191 15 -10 29 -19 32 -19 3 0 31 -17 63 -39 62 -41 263 -169 291 -186 10 -5
32 -20 49 -32 17 -13 34 -23 38 -23 4 0 25 -13 48 -29 23 -16 74 -49 112 -73
l71 -45 58 39 c31 21 60 38 62 38 3 0 20 11 37 24 18 14 43 31 57 38 14 7 50
30 80 49 166 109 290 189 316 203 16 9 85 52 152 96 68 44 128 80 132 80 5 0
10 3 12 8 3 7 114 82 122 82 2 0 37 22 78 49 76 50 151 98 180 116 10 5 56 35
103 65 47 30 93 60 103 65 32 19 107 67 164 106 32 22 60 39 63 39 3 0 33 19
68 42 34 22 85 56 112 73 28 18 97 63 154 100 58 37 121 77 140 89 203 121
184 89 183 302 0 98 -1 186 -1 195 -1 9 -38 47 -82 85 -45 38 -87 74 -93 79
-6 6 -38 32 -71 60 -33 27 -62 52 -65 55 -3 3 -45 38 -95 79 -49 41 -94 79
-100 85 -5 6 -44 39 -85 73 -41 33 -84 69 -95 79 -11 11 -61 53 -110 94 -50
41 -92 77 -95 80 -5 5 -97 83 -149 125 -13 11 -32 27 -41 35 -9 8 -37 32 -63
53 -25 21 -52 43 -59 50 -7 7 -40 34 -73 62 -33 27 -65 54 -71 60 -6 5 -32 28
-59 50 -26 22 -53 45 -59 50 -6 6 -38 33 -71 60 -33 28 -62 52 -65 55 -3 3
-32 28 -65 55 -33 28 -65 55 -71 60 -6 6 -33 28 -60 50 -27 22 -64 54 -84 71
-19 17 -107 91 -195 164 -88 74 -167 141 -176 149 -9 9 -36 32 -60 52 -52 43
-174 145 -209 176 -14 11 -47 40 -75 63 -119 101 -148 126 -159 135 -6 6 -38
33 -71 60 -33 28 -62 52 -65 55 -3 3 -18 16 -35 29 -16 12 -46 37 -65 54 -29
27 -97 84 -235 199 -11 9 -31 26 -44 37 l-24 21 1256 0 1257 0 0 -799 0 -799
46 -38 c26 -22 52 -43 58 -49 6 -5 50 -42 97 -82 48 -39 93 -78 100 -85 8 -7
68 -58 134 -113 66 -55 131 -110 145 -121 14 -12 62 -54 108 -93 46 -39 86
-71 90 -71 9 0 7 3018 -2 3027 -7 8 -4711 10 -4733 2z"/>
</g>
</svg>
